<svg width="187" height="177" viewBox="0 0 187 177" fill="none" xmlns="http://www.w3.org/2000/svg">
<path fill-rule="evenodd" clip-rule="evenodd" d="M39.5981 176.324V54.0741H1.5981V176.324H39.5981ZM20.5981 0.824127C8.3481 0.824127 0.348104 9.07413 0.598104 20.0741C0.348104 30.5741 8.3481 39.0741 20.3481 39.0741C32.8481 39.0741 40.8481 30.5741 40.8481 20.0741C40.5981 9.07413 32.8481 0.824127 20.5981 0.824127ZM70.2016 176.324H108.202V105.824C108.202 102.324 108.702 98.5741 109.702 96.3241C112.202 89.3241 118.452 82.0741 128.952 82.0741C142.702 82.0741 148.202 92.8241 148.202 108.574V176.324H186.202V103.824C186.202 67.8241 167.452 51.3241 142.452 51.3241C122.202 51.3241 109.702 63.0741 104.702 70.8241H103.952L102.202 54.0741H69.2016C69.7016 64.8241 70.2016 77.8241 70.2016 93.0741V176.324Z" fill="white"/>
</svg>
